ffmpeg started on 2025-06-03 at 20:07:18
Report written to "D:\Convert\FFMetrics\reports\psnr_report-6.txt"
Log level: 32
Command line:
ffmpeg -hide_banner -nostdin -i "G:\\\xc0\xed\xe8\xec\xe5\\\xce\xed\xe3\xee\xe8\xed\xe3\xe8\\!_36_\xce\xf1\xe5\xed\xfc_2024\\DreamCast\\\xc1\xe0\xf8\xed\xff \xc1\xee\xe3\xe0\\\xd2\xc2-2\\[DC] Kami no Tou - Ouji no Kikan - 21_Telegram_HEVC.mkv" -i "G:\\\xc0\xed\xe8\xec\xe5\\\xce\xed\xe3\xee\xe8\xed\xe3\xe8\\!_36_\xce\xf1\xe5\xed\xfc_2024\\DreamCast\\\xc1\xe0\xf8\xed\xff \xc1\xee\xe3\xe0\\\xd2\xc2-2\\[DC] Kami no Tou - Ouji no Kikan - 21_Telegram.mp4" -lavfi "[0:v]settb=AVTB,setpts=PTS-STARTPTS,format=pix_fmts=yuv420p10,fps=24000/1001,scale=1920:1080:flags=bicubic[main];[1:v]settb=AVTB,setpts=PTS-STARTPTS,format=pix_fmts=yuv420p,fps=24000/1001,scale=1920:1080:flags=bicubic[ref];[main][ref]psnr=eof_action=endall:stats_file='D\\:/Convert/FFMetrics/logs/psnr_logfile-6.txt'" -f null -
Input #0, matroska,webm, from 'G:\Аниме\Онгоинги\!_36_Осень_2024\DreamCast\Башня Бога\ТВ-2\[DC] Kami no Tou - Ouji no Kikan - 21_Telegram_HEVC.mkv':
  Metadata:
    COMPATIBLE_BRANDS: isomiso2avc1mp41
    MAJOR_BRAND     : isom
    MINOR_VERSION   : 512
    ENCODER         : Lavf61.7.100
  Duration: 00:23:49.42, start: -0.021000, bitrate: 1192 kb/s
  Stream #0:0: Video: hevc (Main 10), yuv420p10le(tv, bt709, progressive), 1920x1080 [SAR 1:1 DAR 16:9], 23.98 fps, 23.98 tbr, 1k tbn (default)
      Metadata:
        HANDLER_NAME    : VideoHandler
        VENDOR_ID       : [0][0][0][0]
        ENCODER         : Lavc61.19.100 libx265
        BPS             : 996526
        DURATION        : 00:23:47.592708333
        NUMBER_OF_FRAMES: 34228
        NUMBER_OF_BYTES : 177829143
        _STATISTICS_WRITING_APP: mkvpropedit v66.0.0 ('Josie') 64-bit
        _STATISTICS_WRITING_DATE_UTC: 2025-05-30 05:51:14
        _STATISTICS_TAGS: BPS DURATION NUMBER_OF_FRAMES NUMBER_OF_BYTES
  Stream #0:1: Audio: aac (LC), 48000 Hz, stereo, fltp (default)
      Metadata:
        HANDLER_NAME    : SoundHandler
        VENDOR_ID       : [0][0][0][0]
        ENCODER         : Lavc61.19.100 aac
        BPS             : 193503
        DURATION        : 00:23:49.418000000
        NUMBER_OF_FRAMES: 67005
        NUMBER_OF_BYTES : 34574702
        _STATISTICS_WRITING_APP: mkvpropedit v66.0.0 ('Josie') 64-bit
        _STATISTICS_WRITING_DATE_UTC: 2025-05-30 05:51:14
        _STATISTICS_TAGS: BPS DURATION NUMBER_OF_FRAMES NUMBER_OF_BYTES
Input #1, mov,mp4,m4a,3gp,3g2,mj2, from 'G:\Аниме\Онгоинги\!_36_Осень_2024\DreamCast\Башня Бога\ТВ-2\[DC] Kami no Tou - Ouji no Kikan - 21_Telegram.mp4':
  Metadata:
    major_brand     : isom
    minor_version   : 512
    compatible_brands: isomiso2avc1mp41
    encoder         : Lavf61.1.100
  Duration: 00:23:49.39, start: 0.000000, bitrate: 3584 kb/s
  Stream #1:0[0x1](und): Video: h264 (High) (avc1 / 0x31637661), yuv420p(tv, bt709, progressive), 1920x1080 [SAR 1:1 DAR 16:9], 3440 kb/s, 23.98 fps, 23.98 tbr, 24k tbn (default)
      Metadata:
        handler_name    : VideoHandler
        vendor_id       : [0][0][0][0]
        encoder         : Lavc61.3.100 h264_qsv
  Stream #1:1[0x2](und): Audio: aac (HE-AACv2) (mp4a / 0x6134706D), 48000 Hz, stereo, fltp, 144 kb/s (default)
      Metadata:
        handler_name    : SoundHandler
        vendor_id       : [0][0][0][0]
Stream mapping:
  Stream #0:0 (hevc) -> settb:default
  Stream #1:0 (h264) -> settb:default
  psnr:default -> Stream #0:0 (wrapped_avframe)
  Stream #0:1 -> #0:1 (aac (native) -> pcm_s16le (native))
Output #0, null, to 'pipe:':
  Metadata:
    COMPATIBLE_BRANDS: isomiso2avc1mp41
    MAJOR_BRAND     : isom
    MINOR_VERSION   : 512
    encoder         : Lavf61.7.100
  Stream #0:0: Video: wrapped_avframe, yuv420p10le(tv, bt709, progressive), 1920x1080 [SAR 1:1 DAR 16:9], q=2-31, 200 kb/s, 23.98 fps, 23.98 tbn
      Metadata:
        encoder         : Lavc61.19.100 wrapped_avframe
  Stream #0:1: Audio: pcm_s16le, 48000 Hz, stereo, s16, 1536 kb/s (default)
      Metadata:
        HANDLER_NAME    : SoundHandler
        VENDOR_ID       : [0][0][0][0]
        _STATISTICS_TAGS: BPS DURATION NUMBER_OF_FRAMES NUMBER_OF_BYTES
        BPS             : 193503
        DURATION        : 00:23:49.418000000
        NUMBER_OF_FRAMES: 67005
        NUMBER_OF_BYTES : 34574702
        _STATISTICS_WRITING_APP: mkvpropedit v66.0.0 ('Josie') 64-bit
        _STATISTICS_WRITING_DATE_UTC: 2025-05-30 05:51:14
        encoder         : Lavc61.19.100 pcm_s16le
frame=  172 fps=0.0 q=-0.0 size=N/A time=00:00:07.17 bitrate=N/A speed=13.8x    frame=  427 fps=416 q=-0.0 size=N/A time=00:00:17.80 bitrate=N/A speed=17.3x    frame=  708 fps=457 q=-0.0 size=N/A time=00:00:29.52 bitrate=N/A speed=19.1x    frame=  972 fps=473 q=-0.0 size=N/A time=00:00:40.54 bitrate=N/A speed=19.7x    frame= 1208 fps=468 q=-0.0 size=N/A time=00:00:50.38 bitrate=N/A speed=19.5x    frame= 1442 fps=467 q=-0.0 size=N/A time=00:01:00.14 bitrate=N/A speed=19.5x    frame= 1654 fps=458 q=-0.0 size=N/A time=00:01:08.98 bitrate=N/A speed=19.1x    frame= 1883 fps=457 q=-0.0 size=N/A time=00:01:18.53 bitrate=N/A speed=19.1x    frame= 2163 fps=466 q=-0.0 size=N/A time=00:01:30.21 bitrate=N/A speed=19.4x    frame= 2432 fps=471 q=-0.0 size=N/A time=00:01:41.43 bitrate=N/A speed=19.7x    frame= 2709 fps=478 q=-0.0 size=N/A time=00:01:52.98 bitrate=N/A speed=19.9x    frame= 2991 fps=483 q=-0.0 size=N/A time=00:02:04.74 bitrate=N/A speed=20.2x    frame= 3256 fps=486 q=-0.0 size=N/A time=00:02:15.80 bitrate=N/A speed=20.3x    frame= 3544 fps=491 q=-0.0 size=N/A time=00:02:27.81 bitrate=N/A speed=20.5x    frame= 3762 fps=487 q=-0.0 size=N/A time=00:02:36.90 bitrate=N/A speed=20.3x    frame= 3994 fps=484 q=-0.0 size=N/A time=00:02:46.58 bitrate=N/A speed=20.2x    frame= 4219 fps=481 q=-0.0 size=N/A time=00:02:55.96 bitrate=N/A speed=20.1x    frame= 4457 fps=479 q=-0.0 size=N/A time=00:03:05.89 bitrate=N/A speed=  20x    frame= 4689 fps=477 q=-0.0 size=N/A time=00:03:15.57 bitrate=N/A speed=19.9x    frame= 4944 fps=479 q=-0.0 size=N/A time=00:03:26.20 bitrate=N/A speed=  20x    frame= 5172 fps=477 q=-0.0 size=N/A time=00:03:35.71 bitrate=N/A speed=19.9x    frame= 5368 fps=473 q=-0.0 size=N/A time=00:03:43.89 bitrate=N/A speed=19.7x    frame= 5583 fps=470 q=-0.0 size=N/A time=00:03:52.85 bitrate=N/A speed=19.6x    frame= 5814 fps=469 q=-0.0 size=N/A time=00:04:02.49 bitrate=N/A speed=19.6x    frame= 6041 fps=468 q=-0.0 size=N/A time=00:04:11.96 bitrate=N/A speed=19.5x    frame= 6284 fps=468 q=-0.0 size=N/A time=00:04:22.09 bitrate=N/A speed=19.5x    frame= 6570 fps=471 q=-0.0 size=N/A time=00:04:34.02 bitrate=N/A speed=19.7x    frame= 6857 fps=474 q=-0.0 size=N/A time=00:04:45.99 bitrate=N/A speed=19.8x    frame= 7140 fps=477 q=-0.0 size=N/A time=00:04:57.79 bitrate=N/A speed=19.9x    frame= 7406 fps=478 q=-0.0 size=N/A time=00:05:08.89 bitrate=N/A speed=19.9x    frame= 7648 fps=478 q=-0.0 size=N/A time=00:05:18.98 bitrate=N/A speed=19.9x    frame= 7919 fps=479 q=-0.0 size=N/A time=00:05:30.28 bitrate=N/A speed=  20x    frame= 8202 fps=482 q=-0.0 size=N/A time=00:05:42.09 bitrate=N/A speed=20.1x    frame= 8446 fps=481 q=-0.0 size=N/A time=00:05:52.26 bitrate=N/A speed=20.1x    frame= 8702 fps=482 q=-0.0 size=N/A time=00:06:02.94 bitrate=N/A speed=20.1x    frame= 8995 fps=484 q=-0.0 size=N/A time=00:06:15.16 bitrate=N/A speed=20.2x    frame= 9281 fps=486 q=-0.0 size=N/A time=00:06:27.09 bitrate=N/A speed=20.3x    frame= 9562 fps=488 q=-0.0 size=N/A time=00:06:38.81 bitrate=N/A speed=20.3x    frame= 9840 fps=489 q=-0.0 size=N/A time=00:06:50.41 bitrate=N/A speed=20.4x    frame=10122 fps=490 q=-0.0 size=N/A time=00:07:02.17 bitrate=N/A speed=20.4x    frame=10395 fps=491 q=-0.0 size=N/A time=00:07:13.55 bitrate=N/A speed=20.5x    frame=10580 fps=488 q=-0.0 size=N/A time=00:07:21.27 bitrate=N/A speed=20.4x    frame=10812 fps=487 q=-0.0 size=N/A time=00:07:30.95 bitrate=N/A speed=20.3x    frame=10981 fps=484 q=-0.0 size=N/A time=00:07:37.99 bitrate=N/A speed=20.2x    frame=11196 fps=482 q=-0.0 size=N/A time=00:07:46.96 bitrate=N/A speed=20.1x    frame=11437 fps=482 q=-0.0 size=N/A time=00:07:57.01 bitrate=N/A speed=20.1x    frame=11707 fps=483 q=-0.0 size=N/A time=00:08:08.27 bitrate=N/A speed=20.1x    frame=12004 fps=485 q=-0.0 size=N/A time=00:08:20.66 bitrate=N/A speed=20.2x    frame=12283 fps=486 q=-0.0 size=N/A time=00:08:32.30 bitrate=N/A speed=20.3x    frame=12554 fps=486 q=-0.0 size=N/A time=00:08:43.60 bitrate=N/A speed=20.3x    frame=12795 fps=486 q=-0.0 size=N/A time=00:08:53.65 bitrate=N/A speed=20.3x    frame=13050 fps=486 q=-0.0 size=N/A time=00:09:04.29 bitrate=N/A speed=20.3x    frame=13192 fps=482 q=-0.0 size=N/A time=00:09:10.21 bitrate=N/A speed=20.1x    frame=13436 fps=482 q=-0.0 size=N/A time=00:09:20.39 bitrate=N/A speed=20.1x    frame=13731 fps=484 q=-0.0 size=N/A time=00:09:32.69 bitrate=N/A speed=20.2x    frame=14003 fps=485 q=-0.0 size=N/A time=00:09:44.04 bitrate=N/A speed=20.2x    frame=14291 fps=486 q=-0.0 size=N/A time=00:09:56.05 bitrate=N/A speed=20.3x    frame=14548 fps=486 q=-0.0 size=N/A time=00:10:06.77 bitrate=N/A speed=20.3x    frame=14784 fps=486 q=-0.0 size=N/A time=00:10:16.61 bitrate=N/A speed=20.3x    frame=15030 fps=486 q=-0.0 size=N/A time=00:10:26.91 bitrate=N/A speed=20.3x    frame=15316 fps=487 q=-0.0 size=N/A time=00:10:38.80 bitrate=N/A speed=20.3x    frame=15595 fps=488 q=-0.0 size=N/A time=00:10:50.44 bitrate=N/A speed=20.3x    frame=15845 fps=487 q=-0.0 size=N/A time=00:11:00.86 bitrate=N/A speed=20.3x    frame=16136 fps=489 q=-0.0 size=N/A time=00:11:13.00 bitrate=N/A speed=20.4x    frame=16403 fps=489 q=-0.0 size=N/A time=00:11:24.14 bitrate=N/A speed=20.4x    frame=16683 fps=490 q=-0.0 size=N/A time=00:11:35.82 bitrate=N/A speed=20.4x    frame=16947 fps=490 q=-0.0 size=N/A time=00:11:46.83 bitrate=N/A speed=20.5x    frame=17214 fps=491 q=-0.0 size=N/A time=00:11:57.96 bitrate=N/A speed=20.5x    frame=17492 fps=491 q=-0.0 size=N/A time=00:12:09.56 bitrate=N/A speed=20.5x    frame=17777 fps=492 q=-0.0 size=N/A time=00:12:21.44 bitrate=N/A speed=20.5x    frame=18054 fps=493 q=-0.0 size=N/A time=00:12:33.00 bitrate=N/A speed=20.6x    frame=18348 fps=494 q=-0.0 size=N/A time=00:12:45.26 bitrate=N/A speed=20.6x    frame=18559 fps=493 q=-0.0 size=N/A time=00:12:54.06 bitrate=N/A speed=20.6x    frame=18835 fps=493 q=-0.0 size=N/A time=00:13:05.57 bitrate=N/A speed=20.6x    frame=19081 fps=493 q=-0.0 size=N/A time=00:13:15.83 bitrate=N/A speed=20.6x    frame=19345 fps=493 q=-0.0 size=N/A time=00:13:26.84 bitrate=N/A speed=20.6x    frame=19610 fps=494 q=-0.0 size=N/A time=00:13:37.90 bitrate=N/A speed=20.6x    frame=19892 fps=494 q=-0.0 size=N/A time=00:13:49.66 bitrate=N/A speed=20.6x    frame=20131 fps=494 q=-0.0 size=N/A time=00:13:59.63 bitrate=N/A speed=20.6x    frame=20383 fps=494 q=-0.0 size=N/A time=00:14:10.14 bitrate=N/A speed=20.6x    frame=20633 fps=494 q=-0.0 size=N/A time=00:14:20.56 bitrate=N/A speed=20.6x    frame=20891 fps=494 q=-0.0 size=N/A time=00:14:31.32 bitrate=N/A speed=20.6x    frame=21126 fps=493 q=-0.0 size=N/A time=00:14:41.13 bitrate=N/A speed=20.6x    frame=21393 fps=494 q=-0.0 size=N/A time=00:14:52.26 bitrate=N/A speed=20.6x    frame=21665 fps=494 q=-0.0 size=N/A time=00:15:03.61 bitrate=N/A speed=20.6x    frame=21927 fps=494 q=-0.0 size=N/A time=00:15:14.53 bitrate=N/A speed=20.6x    frame=22193 fps=495 q=-0.0 size=N/A time=00:15:25.63 bitrate=N/A speed=20.6x    frame=22446 fps=495 q=-0.0 size=N/A time=00:15:36.18 bitrate=N/A speed=20.6x    frame=22715 fps=495 q=-0.0 size=N/A time=00:15:47.40 bitrate=N/A speed=20.6x    frame=22978 fps=495 q=-0.0 size=N/A time=00:15:58.37 bitrate=N/A speed=20.6x    frame=23226 fps=495 q=-0.0 size=N/A time=00:16:08.71 bitrate=N/A speed=20.6x    frame=23478 fps=495 q=-0.0 size=N/A time=00:16:19.22 bitrate=N/A speed=20.6x    frame=23663 fps=493 q=-0.0 size=N/A time=00:16:26.94 bitrate=N/A speed=20.6x    frame=23952 fps=494 q=-0.0 size=N/A time=00:16:38.99 bitrate=N/A speed=20.6x    frame=24211 fps=494 q=-0.0 size=N/A time=00:16:49.80 bitrate=N/A speed=20.6x    frame=24500 fps=495 q=-0.0 size=N/A time=00:17:01.85 bitrate=N/A speed=20.6x    frame=24777 fps=495 q=-0.0 size=N/A time=00:17:13.40 bitrate=N/A speed=20.7x    frame=25074 fps=496 q=-0.0 size=N/A time=00:17:25.79 bitrate=N/A speed=20.7x    frame=25349 fps=496 q=-0.0 size=N/A time=00:17:37.26 bitrate=N/A speed=20.7x    frame=25623 fps=497 q=-0.0 size=N/A time=00:17:48.69 bitrate=N/A speed=20.7x    frame=25873 fps=497 q=-0.0 size=N/A time=00:17:59.11 bitrate=N/A speed=20.7x    frame=26044 fps=495 q=-0.0 size=N/A time=00:18:06.25 bitrate=N/A speed=20.6x    frame=26293 fps=495 q=-0.0 size=N/A time=00:18:16.63 bitrate=N/A speed=20.6x    frame=26569 fps=495 q=-0.0 size=N/A time=00:18:28.14 bitrate=N/A speed=20.7x    frame=26834 fps=495 q=-0.0 size=N/A time=00:18:39.20 bitrate=N/A speed=20.7x    frame=27104 fps=496 q=-0.0 size=N/A time=00:18:50.46 bitrate=N/A speed=20.7x    frame=27357 fps=496 q=-0.0 size=N/A time=00:19:01.01 bitrate=N/A speed=20.7x    frame=27651 fps=496 q=-0.0 size=N/A time=00:19:13.27 bitrate=N/A speed=20.7x    frame=27934 fps=497 q=-0.0 size=N/A time=00:19:25.08 bitrate=N/A speed=20.7x    frame=28192 fps=497 q=-0.0 size=N/A time=00:19:35.84 bitrate=N/A speed=20.7x    frame=28466 fps=497 q=-0.0 size=N/A time=00:19:47.26 bitrate=N/A speed=20.7x    frame=28717 fps=497 q=-0.0 size=N/A time=00:19:57.73 bitrate=N/A speed=20.7x    frame=28958 fps=497 q=-0.0 size=N/A time=00:20:07.78 bitrate=N/A speed=20.7x    frame=29241 fps=497 q=-0.0 size=N/A time=00:20:19.59 bitrate=N/A speed=20.7x    frame=29537 fps=498 q=-0.0 size=N/A time=00:20:31.93 bitrate=N/A speed=20.8x    frame=29769 fps=498 q=-0.0 size=N/A time=00:20:41.61 bitrate=N/A speed=20.8x    frame=30044 fps=498 q=-0.0 size=N/A time=00:20:53.08 bitrate=N/A speed=20.8x    frame=30309 fps=498 q=-0.0 size=N/A time=00:21:04.13 bitrate=N/A speed=20.8x    frame=30495 fps=497 q=-0.0 size=N/A time=00:21:11.89 bitrate=N/A speed=20.7x    frame=30768 fps=497 q=-0.0 size=N/A time=00:21:23.28 bitrate=N/A speed=20.7x    frame=31010 fps=497 q=-0.0 size=N/A time=00:21:33.37 bitrate=N/A speed=20.7x    frame=31253 fps=497 q=-0.0 size=N/A time=00:21:43.51 bitrate=N/A speed=20.7x    frame=31534 fps=497 q=-0.0 size=N/A time=00:21:55.23 bitrate=N/A speed=20.7x    frame=31813 fps=497 q=-0.0 size=N/A time=00:22:06.86 bitrate=N/A speed=20.7x    frame=32073 fps=497 q=-0.0 size=N/A time=00:22:17.71 bitrate=N/A speed=20.7x    frame=32255 fps=496 q=-0.0 size=N/A time=00:22:25.30 bitrate=N/A speed=20.7x    frame=32413 fps=495 q=-0.0 size=N/A time=00:22:31.89 bitrate=N/A speed=20.6x    frame=32570 fps=493 q=-0.0 size=N/A time=00:22:38.44 bitrate=N/A speed=20.6x    frame=32724 fps=492 q=-0.0 size=N/A time=00:22:44.86 bitrate=N/A speed=20.5x    frame=32895 fps=491 q=-0.0 size=N/A time=00:22:51.99 bitrate=N/A speed=20.5x    frame=33081 fps=490 q=-0.0 size=N/A time=00:22:59.75 bitrate=N/A speed=20.4x    frame=33247 fps=488 q=-0.0 size=N/A time=00:23:06.67 bitrate=N/A speed=20.4x    frame=33403 fps=487 q=-0.0 size=N/A time=00:23:13.18 bitrate=N/A speed=20.3x    frame=33561 fps=486 q=-0.0 size=N/A time=00:23:19.77 bitrate=N/A speed=20.3x    frame=33707 fps=484 q=-0.0 size=N/A time=00:23:25.86 bitrate=N/A speed=20.2x    frame=33824 fps=482 q=-0.0 size=N/A time=00:23:30.74 bitrate=N/A speed=20.1x    frame=34011 fps=481 q=-0.0 size=N/A time=00:23:38.54 bitrate=N/A speed=20.1x    [Parsed_psnr_10 @ 000002853bc38bc0] PSNR y:49.163894 u:51.646795 v:51.679228 average:49.848536 min:39.442375 max:inf
[out#0/null @ 00000285397f5880] video:14707KiB audio:268020KiB subtitle:0KiB other streams:0KiB global headers:0KiB muxing overhead: unknown
frame=34228 fps=481 q=-0.0 Lsize=N/A time=00:23:47.59 bitrate=N/A speed=20.1x    
